# xmcd CD database file
#
# Track frame offsets:
#	182
#	11850
#	24590
#	34057
#	45312
#	57085
#	66682
#	77572
#	95507
#	109590
#	122087
#	134600
#	150760
#	163890
#	179780
#	196240
#	208366
#	263057
#
# Disc length: 4440 seconds
#
# Revision: 32
# Processed by: cddbd v1.5.2PL0 Copyright (c) Steve Scherf et al.
# Submitted via: CDex 2.21
#
DISCID=fe115612
DTITLE=Dick Brave and The Backbeats - Dick this!
DYEAR=2003
DGENRE=Rockabilly
TTITLE0=Get The Party Started
TTITLE1=Walk This Way
TTITLE2=She's The Most
TTITLE3=Take Good Care Of My Baby
TTITLE4=Be The One For Me
TTITLE5=Twenty Flight Rock
TTITLE6=Slippin' N Slidin'
TTITLE7=Freedom
TTITLE8=Buona Sera
TTITLE9=Teenager In Love
TTITLE10=Black Or White
TTITLE11=Hallelujah, I Love Her So
TTITLE12=Here I Go (I'm A Hobo)
TTITLE13=Smokey Joe's Cafe
TTITLE14=Complicated
TTITLE15=Give It Away
TTITLE16=They Remind Me Too Much Of You
TTITLE17=Data Track
EXTD=YEAR: 2003
EXTT0=
EXTT1=
EXTT2=
EXTT3=
EXTT4=
EXTT5=
EXTT6=
EXTT7=
EXTT8=
EXTT9=
EXTT10=
EXTT11=
EXTT12=
EXTT13=
EXTT14=
EXTT15=
EXTT16=
EXTT17=
PLAYORDER=
